<?xml version="1.0" encoding="UTF-8"?>
<svg id="Layer_1" xmlns="http://www.w3.org/2000/svg" xmlns:xlink="http://www.w3.org/1999/xlink" version="1.1" viewBox="0 0 1341.3 732.1">
  <!-- Generator: Adobe Illustrator 29.6.1, SVG Export Plug-In . SVG Version: 2.1.1 Build 9)  -->
  <defs>
    <style>
      .st0 {
        fill: #111;
      }

      .st1 {
        font-family: Satoshi-Medium, Satoshi;
        font-weight: 500;
        letter-spacing: 0em;
      }

      .st1, .st2 {
        fill: #444;
      }

      .st3 {
        font-size: 37.8px;
      }

      .st3, .st4 {
        isolation: isolate;
      }

      .st5 {
        fill: url(#linear-gradient1);
      }

      .st6 {
        fill: url(#linear-gradient);
      }

      .st7 {
        fill: #ffa726;
      }

      .st8 {
        font-family: Satoshi-Bold, Satoshi;
        font-weight: 700;
        letter-spacing: 0em;
      }

      .st9 {
        fill: #fb8c00;
      }
    </style>
    <linearGradient id="linear-gradient" x1="472.6" y1="236.6" x2="472.6" y2="336.7" gradientUnits="userSpaceOnUse">
      <stop offset="0" stop-color="#ffa726"/>
      <stop offset="1" stop-color="#fb8c00"/>
    </linearGradient>
    <linearGradient id="linear-gradient1" x1="466.2" y1="357.3" x2="466.2" y2="457.4" xlink:href="#linear-gradient"/>
  </defs>
  <text class="st3" transform="translate(523.8 304)"><tspan class="st8" x="0" y="0">MOCKUP</tspan><tspan class="st1" x="170.7" y="0">IDEA</tspan></text>
  <g>
    <path class="st6" d="M511.1,292.1c0,5.9-1.3,11.5-3.7,16.5-.5,1-1,2-1.5,2.9h-7.2s-12.2-22.3-12.2-22.3c-.2-.4-.8-.4-1.1,0l-12.2,22.3s0,0,0,.1h-.9s0,0,0-.1l-12.4-22.2c-.2-.4-.8-.4-1.1,0l-12,22.4h-7.1c-.6-1-1.1-2-1.7-3-2.4-5-3.8-10.7-3.8-16.6,0-21.3,17.3-38.5,38.5-38.5s38.5,17.2,38.5,38.5Z"/>
    <path class="st2" d="M510.3,311.5h-4.5s-7.2,0-7.2,0l-12.2-22.3c-.2-.4-.8-.4-1.1,0l-12.2,22.3s0,0,0,.1h-.9s0,0,0-.1l-12.4-22.2c-.2-.4-.8-.4-1.1,0l-12,22.4h-7.1s-4.6,0-4.6,0c0-.1.1-.2.3-.3l1.5-.9c.1,0,.2-.1.2-.2l1-1.7,20.1-35.9c.2-.4.8-.4,1,0l13,21.8c.2.4.8.4,1,0l12.8-21.9c.2-.4.8-.4,1,0l20.5,35.9.9,1.5c0,0,.1.2.2.2l1.6.8c.1,0,.2.2.3.3Z"/>
  </g>
  <g class="st4">
    <path d="M520.5,420.3v-27.7h4.7l8.9,22,8.9-22h4.8v27.7h-4.7v-8.5c0-5.6,0-7.2.3-9.2l-7,17.7h-4.5l-7-17.6c.3,1.7.3,4.3.3,7.7v9.9h-4.7Z"/>
    <path d="M565.9,420.8c-7.9,0-13.4-5.9-13.4-14.3s5.5-14.3,13.4-14.3,13.4,5.9,13.4,14.3-5.5,14.3-13.5,14.3ZM566,396.8c-5.1,0-8.3,3.7-8.3,9.6s3.3,9.6,8.3,9.6,8.3-3.8,8.3-9.6-3.3-9.6-8.3-9.6Z"/>
    <path d="M582.6,406.5c0-8.6,5.4-14.3,13.5-14.3s11.4,3.8,12.4,9.8h-5.1c-.9-3.2-3.7-5.1-7.4-5.1s-8.3,3.7-8.3,9.6,3.3,9.6,8.3,9.6,6.6-2,7.5-5h5c-1.1,5.8-6.1,9.7-12.7,9.7s-13.3-5.6-13.3-14.3Z"/>
    <path d="M618,407.2l11.2-14.5h5.7l-9.2,11.8,9.3,15.9h-5.6l-6.8-11.8-4.6,5.9v5.9h-4.8v-27.7h4.8v14.5Z"/>
    <path d="M638.7,392.6h4.8v17.3c0,4,2.2,6.2,6.1,6.2s6.1-2.2,6.1-6.2v-17.3h4.8v17.6c0,6.5-4.2,10.6-11,10.6s-10.9-4-10.9-10.6v-17.6Z"/>
    <path d="M671.6,410.8v9.5h-4.8v-27.7h10.9c5.6,0,9.2,3.6,9.2,9s-3.6,9.1-9.2,9.1h-6.1ZM671.6,396.9v9.5h5.1c3.3,0,5.1-1.8,5.1-4.8s-1.8-4.7-5-4.7h-5.1Z"/>
    <path class="st2" d="M695,420.3h-3.7v-27.4h3.7v27.4Z"/>
    <path class="st2" d="M701.6,420.3v-27.4h8.9c8.2,0,13.7,5.5,13.7,13.7s-5.4,13.7-13.5,13.7h-9ZM705.3,396.3v20.5h5.1c6.1,0,10-3.9,10-10.2s-3.9-10.3-10.1-10.3h-4.9Z"/>
    <path class="st2" d="M729.1,420.3v-27.4h16.7v3.4h-13v8.6h11.7v3.3h-11.7v8.7h13v3.4h-16.7Z"/>
    <path class="st2" d="M748.7,420.3l10-27.4h4.1l10,27.4h-3.9l-2.5-6.8h-11.5l-2.4,6.8h-3.9ZM756.1,410.3h9.3l-4.2-11.4c-.2-.5-.4-1.2-.5-1.6,0,.4-.3,1-.5,1.6l-4.2,11.4Z"/>
  </g>
  <g>
    <path class="st5" d="M504.7,412.8c0,5.9-1.3,11.5-3.7,16.5-.5,1-1,2-1.5,2.9h-7.2s-12.2-22.3-12.2-22.3c-.2-.4-.8-.4-1.1,0l-12.2,22.3s0,0,0,.1h-.9s0,0,0-.1l-12.4-22.2c-.2-.4-.8-.4-1.1,0l-12,22.4h-7.1c-.6-1-1.1-2-1.7-3-2.4-5-3.8-10.7-3.8-16.6,0-21.3,17.3-38.5,38.5-38.5s38.5,17.2,38.5,38.5Z"/>
    <path class="st2" d="M504,432.2h-4.5s-7.2,0-7.2,0l-12.2-22.3c-.2-.4-.8-.4-1.1,0l-12.2,22.3s0,0,0,.1h-.9s0,0,0-.1l-12.4-22.2c-.2-.4-.8-.4-1.1,0l-12,22.4h-7.1s-4.6,0-4.6,0c0-.1.1-.2.3-.3l1.5-.9c.1,0,.2-.1.2-.2l1-1.7,20.1-35.9c.2-.4.8-.4,1,0l13,21.8c.2.4.8.4,1,0l12.8-21.9c.2-.4.8-.4,1,0l20.5,35.9.9,1.5c0,0,.1.2.2.2l1.6.8c.1,0,.2.2.3.3Z"/>
  </g>
  <rect class="st7" x="1033.3" y="238.5" width="47.4" height="47.4"/>
  <rect class="st9" x="1033.3" y="293.6" width="47.4" height="47.4"/>
  <rect class="st2" x="1033.3" y="348.6" width="47.4" height="47.4"/>
  <rect class="st0" x="1033.3" y="402" width="47.4" height="47.4"/>
</svg>