<svg width="485" height="206" viewBox="0 0 485 206" fill="none" xmlns="http://www.w3.org/2000/svg">
<path d="M74.063 203.782C55.027 203.782 35.9803 203.4 16.9576 203.899C0.670962 204.326 -2.08237 196.82 4.18696 183.758C10.335 170.951 16.7203 157.971 23.6483 145.878C43.067 111.988 55.863 74.7496 77.5416 42.1376C90.4816 22.6696 107.934 8.98296 131.015 4.88429C164.824 -1.12104 201.17 -2.12371 224.234 25.5936C242.383 47.407 248.17 35.675 260.91 24.067C298.876 -10.5304 375.083 -7.98769 409.632 44.9096C426.046 70.0376 436.8 98.859 450.18 125.976C460.027 145.928 469.296 166.208 480.136 185.608C486.438 196.887 483.491 202.908 472.07 203.66C429.407 206.471 390.634 193.408 360.851 163.854C340.991 144.146 330.428 116.095 319.3 90.0523C313.092 75.5296 305.796 61.5043 296.431 49.5856C287.023 37.611 271.367 38.731 258.246 45.295C244.747 52.0456 252.867 60.839 256.446 70.6123C271.279 111.112 293.994 147.618 313.014 185.974C318.506 197.048 316.574 203.246 303.892 203.6C246.95 205.196 196.811 182.943 171.607 128.112C159.943 102.739 146.81 78.0043 133.506 53.431C124.919 37.5696 95.315 37.219 84.6603 51.7083C81.699 55.7376 80.4163 58.2096 82.9696 63.1883C103.502 103.208 123.378 143.566 144.036 183.519C151.204 197.38 148.664 203.582 133.075 203.891C113.411 204.283 93.7336 203.986 74.063 203.986V203.782Z" fill="#1200FF" stroke="#1200FF" stroke-width="2.176" stroke-miterlimit="10"/>
</svg>
