<svg width="77" height="59" viewBox="0 0 77 59" fill="none" xmlns="http://www.w3.org/2000/svg">
<path d="M76.9 38.5C76.9 44.4 75.6 50 73.2 55C72.7 56 72.2 57 71.7 57.9H64.5L52.3 35.6C52.1 35.2 51.5 35.2 51.2 35.6L39 57.9C39 57.9 39 57.9 39 58H38.1C38.1 58 38.1 58 38.1 57.9L25.7 35.7C25.5 35.3 24.9 35.3 24.6 35.7L12.6 58.1H5.5C4.9 57.1 4.40002 56.1 3.80002 55.1C1.40002 50.1 0 44.4 0 38.5C0 17.2 17.3 0 38.5 0C59.7 0 77 17.2 77 38.5H76.9Z" fill="url(#paint0_linear_28_18)"/>
<path d="M76.1999 57.9H71.6999H64.4999L52.2999 35.6C52.0999 35.2 51.4999 35.2 51.1999 35.6L38.9999 57.9C38.9999 57.9 38.9999 57.9 38.9999 58H38.0999C38.0999 58 38.0999 58 38.0999 57.9L25.6999 35.7C25.4999 35.3 24.8999 35.3 24.5999 35.7L12.5999 58.1H5.49988H0.899902C0.899902 58 0.99989 57.9 1.19989 57.8L2.69989 56.9C2.79989 56.9 2.8999 56.8 2.8999 56.7L3.8999 55L23.9999 19.1C24.1999 18.7 24.7999 18.7 24.9999 19.1L37.9999 40.9C38.1999 41.3 38.7999 41.3 38.9999 40.9L51.7999 19C51.9999 18.6 52.5999 18.6 52.7999 19L73.2999 54.9L74.1999 56.4C74.1999 56.4 74.2999 56.6 74.3999 56.6L75.9999 57.4C76.0999 57.4 76.1999 57.6 76.2999 57.7L76.1999 57.9Z" fill="#444444"/>
<defs>
<linearGradient id="paint0_linear_28_18" x1="38.4" y1="-17" x2="38.4" y2="83.1" gradientUnits="userSpaceOnUse">
<stop stop-color="#FFA726"/>
<stop offset="1" stop-color="#FB8C00"/>
</linearGradient>
</defs>
</svg>
